<?xml version="1.0" encoding="utf-8"?>
<!-- Generator: Adobe Illustrator 22.0.1, SVG Export Plug-In . SVG Version: 6.00 Build 0)  -->
<svg version="1.1" id="Capa_1" xmlns="http://www.w3.org/2000/svg" xmlns:xlink="http://www.w3.org/1999/xlink" x="0px" y="0px"
	 viewBox="0 0 1946 6969.1" style="enable-background:new 0 0 1946 6969.1;" xml:space="preserve">
<path class="circle" d="M742,6027.9c-40.1,40.1-40.1,105,0,145.1s105,40.1,145,0c40.1-40.1,40.1-105,0-145.1c-20-20-46.3-30-72.5-30
	C788.3,5997.8,762,6007.8,742,6027.9z"/>
<path class="circle" d="M487,1731.8c-40.1,40.1-40.1,105,0,145.1s105,40.1,145,0c40.1-40.1,40.1-105,0-145.1c-20-20-46.3-30-72.5-30
	S507,1711.8,487,1731.8z"/>
<line class="st1 group1" x1="1846" y1="200" x2="1020" y2="1026"/>
<line class="st2 group1" x1="1550" y1="100" x2="530" y2="1120"/>
<path id="reversed" class="st1 group1" d="M711.1,543.5L333.2,921.4c-192.9,192.9-192.9,508.6,0,701.5"/>
<path class="st1 group2" d="M1564.9,2811.7c192.9,192.9,192.9,508.6,0,701.5"/>
<line class="st3 group2" x1="292.6" y1="1926.2" x2="1144.8" y2="2778.5"/>
<line class="st4 group2" x1="751.4" y1="1999.2" x2="1367.7" y2="2615.5"/>
<line class="st5" x1="366.2" y1="6047.5" x2="1187.8" y2="6869.1"/>
<line class="st4" x1="1009.6" y1="6294.5" x2="1579.2" y2="6864.1"/>
<line class="st1" x1="1339" y1="3346.6" x2="516.4" y2="4169.2"/>
<line class="st6 group3" x1="1370.3" y1="3707.6" x2="432.7" y2="4645.2"/>
<line class="st3 group3" x1="1731.3" y1="3739" x2="908.7" y2="4561.5"/>
<path class="st7 group3" d="M244.7,4834.1c-192.9,192.9-192.9,508.6,0,701.5l377.9,377.9"/>
</svg>
